<?xml version="1.0" encoding="iso-8859-1"?>
<!-- Generator: Adobe Illustrator 19.0.0, SVG Export Plug-In . SVG Version: 6.00 Build 0)  -->
<svg version="1.1" id="Layer_1" xmlns="http://www.w3.org/2000/svg" xmlns:xlink="http://www.w3.org/1999/xlink" x="0px" y="0px"
	 viewBox="0 0 512 512" style="enable-background:new 0 0 512 512;" xml:space="preserve">
<g>
	<g>
		<path d="M494.14,99.017H477.71V42.314c0-9.864-7.997-17.86-17.86-17.86h-97.716c-9.864,0-17.86,7.997-17.86,17.86v56.703h-21.555
			V42.314c0-9.864-7.997-17.86-17.86-17.86h-97.716c-9.864,0-17.86,7.997-17.86,17.86v56.703h-21.555V42.314
			c0-9.864-7.997-17.86-17.86-17.86H52.15c-9.864,0-17.86,7.997-17.86,17.86v56.703H17.86c-9.864,0-17.86,7.997-17.86,17.86v352.807
			c0,9.864,7.997,17.86,17.86,17.86H494.14c9.864,0,17.86-7.997,17.86-17.86V116.877C512,107.013,504.003,99.017,494.14,99.017z
			 M379.994,60.175h61.995v38.843h-61.995V60.175z M225.003,60.175h61.995v38.843h-61.995V60.175z M70.011,60.175h61.995v38.843
			H70.011V60.175z M476.279,451.825H35.721v-0.001V311.142h440.558V451.825z M476.279,275.42H35.721V134.738
			c18.332,0,422.356,0,440.558,0V275.42z"/>
	</g>
</g>
<g>
</g>
<g>
</g>
<g>
</g>
<g>
</g>
<g>
</g>
<g>
</g>
<g>
</g>
<g>
</g>
<g>
</g>
<g>
</g>
<g>
</g>
<g>
</g>
<g>
</g>
<g>
</g>
<g>
</g>
</svg>
